<?xml version="1.0" encoding="utf-8"?>
<!-- Generator: Adobe Illustrator 27.3.1, SVG Export Plug-In . SVG Version: 6.00 Build 0)  -->
<svg version="1.1" id="Layer_1" xmlns="http://www.w3.org/2000/svg" xmlns:xlink="http://www.w3.org/1999/xlink" x="0px" y="0px"
	 viewBox="0 0 1200 1200" style="enable-background:new 0 0 1200 1200;" xml:space="preserve">
<style type="text/css">
	.st0{fill:url(#SVGID_1_);}
	.st1{fill:#FFFFFF;}
</style>
<linearGradient id="SVGID_1_" gradientUnits="userSpaceOnUse" x1="386.715" y1="478.3187" x2="386.715" y2="620.2988">
	<stop  offset="0" style="stop-color:#D9E021"/>
	<stop  offset="1" style="stop-color:#8CC63F"/>
</linearGradient>
<path class="st0" d="M326.3,549.6v11.2c10.1,4.3,20.1,8.6,30.3,12.9v14.6h10v-21.8C353.2,560.9,339.9,555.3,326.3,549.6z
	 M442.4,501.6c-4.2,1.7-8.1,3.3-12.3,5v-15.1c-10.4-4.4-20.6-8.7-31.2-13.2v11.2c6.9,3,13.8,5.9,20.7,8.9v12.8
	c-6.9,2.9-13.8,5.9-20.6,8.8v34c3.6-1.5,6.9-2.9,10.2-4.4v-22.6c13.3-5.7,26.5-11.3,40.2-17.1C446.9,506.9,444.6,504.2,442.4,501.6z
	 M400.5,603c0,9.5-7.7,17.3-17.3,17.3c-9.5,0-17.3-7.7-17.3-17.3c0-7.4,4.7-13.8,11.3-16.2c0-0.3,0.1-0.5,0.1-0.8
	c0.5-8.7,0.2-17.4,0.2-26.5c-22.7-9.6-45.4-19.2-68.5-29c1.4-3.2,2.7-6.2,4-9.5c14.5,6.1,28.6,12.1,43.2,18.2v-11.6
	c-12.3-5.2-24.8-10.5-37.6-16c2.3-2.9,4.4-5.5,6.7-8.4c13.8,5.8,27.5,11.6,41.4,17.5v23c3.5,1.5,6.9,2.9,10.7,4.5v-34.6
	c-14.3-6.1-28.7-12.2-43.6-18.5c3.6-2.5,6.8-4.7,10-7c11.1,4.7,22.1,9.3,33.6,14.1v-11.5c-6.5-2.8-13.1-5.6-19.8-8.5
	c10.6-5.8,20.6-4.7,30.5,2.3v85.7c10.7-4.5,21.1-8.9,31.6-13.3v-22.7c11.9-5,23.5-10,35.6-15.1c1.5,3.1,2.9,6.1,4.4,9.4
	c-9.9,4.2-19.5,8.3-29.3,12.5v11.3c10.8-4.5,21.4-9,32.4-13.6c0.6,3.5,1.2,6.8,1.9,10.5c-25.6,10.8-51.2,21.6-76.4,32.3
	c0.1,2.6,0,2.3,0,5C395.2,588.5,400.5,595.2,400.5,603z"/>
<g>
	<g>
		<path class="st1" d="M503.2,564.5h27.4v9.8h-38.7v-49.7h37.9v9.7h-26.6v10.1h25.2v9.4h-25.2V564.5z"/>
		<path class="st1" d="M562.3,539.2h11.9l-14.8,35.1h-11.4L533,539.2h12.1l4.2,10.6l4.3,12.7l4.3-12.7L562.3,539.2z"/>
		<path class="st1" d="M584.1,572.8c-2.9-1.5-5.1-3.7-6.7-6.4c-1.6-2.7-2.3-5.9-2.3-9.6c0-3.6,0.8-6.8,2.3-9.6
			c1.6-2.7,3.8-4.9,6.7-6.4c2.9-1.5,6.3-2.3,10.2-2.3c3.9,0,7.3,0.8,10.2,2.3c2.9,1.5,5.2,3.7,6.7,6.4c1.6,2.7,2.3,5.9,2.3,9.6
			c0,3.6-0.8,6.8-2.3,9.6c-1.6,2.7-3.8,4.9-6.7,6.4c-2.9,1.5-6.3,2.3-10.2,2.3C590.4,575.1,587.1,574.3,584.1,572.8z M600.3,563.1
			c1.5-1.7,2.3-3.8,2.3-6.4c0-2.6-0.8-4.7-2.3-6.4c-1.5-1.7-3.5-2.5-6-2.5c-2.4,0-4.4,0.8-5.9,2.5c-1.5,1.7-2.3,3.8-2.3,6.4
			c0,2.6,0.8,4.7,2.3,6.4c1.5,1.7,3.5,2.5,5.9,2.5C596.8,565.6,598.8,564.8,600.3,563.1z"/>
		<path class="st1" d="M627.1,572.8c-2.9-1.5-5.2-3.6-6.7-6.4c-1.6-2.7-2.4-6-2.4-9.7c0-3.6,0.8-6.8,2.4-9.6
			c1.6-2.8,3.9-4.9,6.7-6.5c2.9-1.5,6.2-2.3,10-2.3c2.6,0,5.1,0.5,7.5,1.4c2.4,0.9,4.5,2.3,6.3,4.1l-6.2,6.7c-2-1.8-4.3-2.8-7-2.8
			c-2.6,0-4.6,0.8-6.2,2.4c-1.6,1.6-2.4,3.8-2.4,6.4c0,2.6,0.8,4.8,2.4,6.4c1.6,1.6,3.7,2.4,6.3,2.4c2.9,0,5.3-1,7.4-3.1l6.3,6.7
			c-3.9,3.9-8.6,5.8-14,5.8C633.5,575.1,630,574.3,627.1,572.8z"/>
		<path class="st1" d="M692.6,539.2v35.1h-9.7l-0.7-4.2c-3,3.3-6.9,4.9-11.6,4.9c-3.3,0-6.2-0.8-8.7-2.3c-2.5-1.5-4.5-3.7-5.9-6.5
			c-1.4-2.8-2.1-5.9-2.1-9.5s0.7-6.7,2.1-9.5c1.4-2.8,3.4-4.9,5.9-6.5c2.5-1.5,5.4-2.3,8.7-2.3c2.4,0,4.5,0.4,6.5,1.2
			c2,0.8,3.7,2,5.1,3.6l0.7-4.1H692.6z M679.3,563.2c1.6-1.6,2.3-3.8,2.3-6.4c0-2.6-0.8-4.8-2.3-6.4c-1.6-1.6-3.6-2.4-6-2.4
			c-2.5,0-4.5,0.8-6,2.5c-1.5,1.7-2.3,3.8-2.3,6.4c0,2.6,0.8,4.7,2.3,6.4c1.5,1.7,3.5,2.5,6,2.5
			C675.7,565.6,677.7,564.8,679.3,563.2z"/>
		<path class="st1" d="M718.8,524.6h11.6v39.2h25v10.5h-36.6V524.6z"/>
		<path class="st1" d="M797,539.2v35.1h-9.7l-0.7-4.2c-3,3.3-6.9,4.9-11.6,4.9c-3.3,0-6.2-0.8-8.7-2.3c-2.5-1.5-4.5-3.7-5.9-6.5
			c-1.4-2.8-2.1-5.9-2.1-9.5s0.7-6.7,2.1-9.5c1.4-2.8,3.4-4.9,5.9-6.5c2.5-1.5,5.4-2.3,8.7-2.3c2.4,0,4.5,0.4,6.5,1.2
			c2,0.8,3.7,2,5.1,3.6l0.7-4.1H797z M783.6,563.2c1.6-1.6,2.3-3.8,2.3-6.4c0-2.6-0.8-4.8-2.3-6.4c-1.6-1.6-3.6-2.4-6-2.4
			c-2.5,0-4.5,0.8-6,2.5c-1.5,1.7-2.3,3.8-2.3,6.4c0,2.6,0.8,4.7,2.3,6.4c1.5,1.7,3.5,2.5,6,2.5
			C780.1,565.6,782.1,564.8,783.6,563.2z"/>
		<path class="st1" d="M836.1,540.8c2.6,1.5,4.5,3.7,6,6.5c1.4,2.8,2.1,5.9,2.1,9.5s-0.7,6.7-2.1,9.5c-1.4,2.8-3.4,4.9-6,6.5
			c-2.6,1.5-5.5,2.3-8.7,2.3c-4.8,0-8.7-1.6-11.6-4.9l-0.7,4.2h-9.7v-49.7h11.1v18c2.9-2.7,6.6-4,10.9-4
			C830.6,538.5,833.5,539.3,836.1,540.8z M830.8,563.2c1.6-1.6,2.3-3.8,2.3-6.4c0-2.6-0.8-4.8-2.3-6.4c-1.6-1.6-3.6-2.4-6-2.4
			c-2.5,0-4.5,0.8-6,2.5c-1.5,1.7-2.3,3.8-2.3,6.4c0,2.6,0.8,4.7,2.3,6.4c1.5,1.7,3.5,2.5,6,2.5
			C827.2,565.6,829.2,564.8,830.8,563.2z"/>
		<path class="st1" d="M847.6,570.5l4.3-7.7c1.7,1,3.7,1.8,5.9,2.4c2.2,0.6,4.5,0.9,6.7,0.9c3.1,0,4.6-0.8,4.6-2.5
			c0-0.9-0.4-1.5-1.3-1.9c-0.9-0.4-2.3-0.7-4.3-0.9c-4.4-0.2-8-1.3-10.6-3.3c-2.6-2-3.9-4.6-3.9-7.8c0-3.5,1.4-6.3,4.3-8.3
			c2.8-2.1,6.7-3.1,11.5-3.1c2.7,0,5.4,0.3,7.8,1c2.5,0.7,4.6,1.6,6.4,2.8l-4.3,7.5c-2.7-1.5-5.8-2.3-9.4-2.3
			c-3.6,0-5.4,0.9-5.4,2.6c0,0.7,0.4,1.3,1.1,1.6c0.7,0.4,2,0.7,3.7,0.9c5,0.4,8.8,1.5,11.5,3.4c2.6,1.9,3.9,4.5,3.9,7.9
			c0,3.6-1.4,6.4-4.3,8.5c-2.9,2.1-6.9,3.1-12,3.1C857.5,575.2,852.2,573.6,847.6,570.5z"/>
	</g>
</g>
</svg>
